<svg width="13" height="13" viewBox="0 0 13 13" fill="none" xmlns="http://www.w3.org/2000/svg">
<path d="M6.38444 0C3.91691 0 1.90942 2.05024 1.90942 4.57031C1.90942 5.42176 2.14036 6.2527 2.57742 6.97359L6.12971 12.82C6.19775 12.932 6.31764 13 6.44657 13C6.44756 13 6.44853 13 6.44952 13C6.57957 12.999 6.6997 12.9288 6.7665 12.8149L10.2283 6.91184C10.6412 6.20618 10.8595 5.3965 10.8595 4.57031C10.8595 2.05024 8.85196 0 6.38444 0ZM9.5882 6.52077L6.44092 11.8875L3.21133 6.57226C2.84754 5.97223 2.65029 5.27998 2.65029 4.57031C2.65029 2.47025 4.32817 0.756641 6.38444 0.756641C8.44071 0.756641 10.1161 2.47025 10.1161 4.57031C10.1161 5.25893 9.93186 5.93348 9.5882 6.52077Z" fill="#9B9B9B"/>
<path d="M6.38442 2.28516C5.15066 2.28516 4.14691 3.31028 4.14691 4.57031C4.14691 5.8223 5.13432 6.85547 6.38442 6.85547C7.64993 6.85547 8.62193 5.80854 8.62193 4.57031C8.62193 3.31028 7.61818 2.28516 6.38442 2.28516ZM6.38442 6.09883C5.55761 6.09883 4.88778 5.41244 4.88778 4.57031C4.88778 3.73029 5.56191 3.0418 6.38442 3.0418C7.20693 3.0418 7.87858 3.73029 7.87858 4.57031C7.87858 5.40015 7.22433 6.09883 6.38442 6.09883Z" fill="#9B9B9B"/>
</svg>
